<svg width="150" height="43" viewBox="0 0 150 43" fill="none" xmlns="http://www.w3.org/2000/svg">
<path d="M115.007 41.4726H122.027V34.1021C118.15 34.1021 115.007 37.4019 115.007 41.4726Z" fill="#111625"/>
<path d="M115.281 31.4098H121.876V22.765C121.876 20.1476 121.193 18.0948 119.825 16.6043C118.457 15.1138 116.424 14.3691 113.724 14.3691C110.054 14.3691 107.13 15.7319 104.949 18.4584V15.0243H98.3547V41.3573H104.949V23.6363C106.368 21.565 108.272 20.5287 110.66 20.5287C113.741 20.5287 115.281 22.1644 115.281 25.4358V31.4087V31.4098Z" fill="#70BAF2"/>
<path d="M32.0289 42.8866H40.2818V34.2222C35.7238 34.2222 32.0289 38.1018 32.0289 42.8866Z" fill="#70BAF2"/>
<path d="M40.0311 -0.000976562H32.2784V31.0557H40.0311V-0.000976562Z" fill="#111625"/>
<path d="M150 0.250977H143.375V23.4184H150V0.250977Z" fill="#111625"/>
<path d="M61.9094 41.4208H68.7782V34.2075C64.9845 34.2075 61.9094 37.4374 61.9094 41.4208Z" fill="#111625"/>
<path d="M67.3199 18.2903C65.0498 15.6762 62.0859 14.3691 58.4264 14.3691C54.7669 14.3691 51.6939 15.6685 49.3062 18.2641C46.9175 20.8607 45.7236 24.0622 45.7236 27.8676C45.7236 31.923 46.9601 35.1955 49.4331 37.6851C51.906 40.1758 55.0394 41.4195 58.8341 41.4195C59.0254 41.4195 59.2116 41.414 59.3988 41.4097V36.0254C57.4686 35.997 55.889 35.4335 54.6681 34.323C53.4139 33.1853 52.686 31.7614 52.4822 30.0547H70.7247V28.5598C70.7247 24.3275 69.5891 20.9032 67.3199 18.2892V18.2903ZM52.3802 25.4664C52.5498 23.9716 53.1425 22.6471 54.1585 21.4918C55.1756 20.3365 56.5982 19.7578 58.4264 19.7578C60.3576 19.7578 61.8228 20.3453 62.8222 21.5191C63.8216 22.6929 64.3728 24.0087 64.4736 25.4675H52.3792L52.3802 25.4664Z" fill="#70BAF2"/>
<path d="M143.374 18.3157C141.41 15.6372 138.841 14.2974 135.671 14.2974C132.5 14.2974 129.775 15.5465 127.707 18.0438C125.638 20.5421 124.605 23.89 124.605 28.0884C124.605 32.2869 125.638 35.7166 127.707 38.1593C129.775 40.6019 132.429 41.8249 135.671 41.8249C138.912 41.8249 141.34 40.4862 143.374 37.8066V41.173H149.994V14.9809H143.374V18.3157ZM143.374 32.704C142.823 33.5732 142.012 34.2873 140.944 34.8486C139.875 35.4098 138.789 35.6904 137.686 35.6904C135.825 35.6904 134.307 34.984 133.135 33.5732C131.963 32.1613 131.378 30.3334 131.378 28.0895C131.378 25.8456 131.963 23.9631 133.135 22.5513C134.307 21.1394 135.825 20.434 137.686 20.434C138.788 20.434 139.875 20.7146 140.944 21.2759C142.012 21.8371 142.822 22.5513 143.374 23.4204V32.7051V32.704Z" fill="#70BAF2"/>
<path d="M19.812 8.55518C19.812 13.5355 23.6577 17.5734 28.4008 17.5734V8.55518H19.812Z" fill="#111625"/>
<path d="M16.6462 34.8386C14.1889 34.8386 12.188 33.9716 10.6427 32.2366C9.0963 30.5015 8.32363 28.2335 8.32363 25.4317C8.32363 22.6298 9.0963 20.3728 10.6427 18.6606C12.188 16.9496 14.1889 16.0924 16.6462 16.0924C16.6556 16.0924 16.6639 16.0935 16.6743 16.0935V8.56245C16.537 8.56026 16.4039 8.55371 16.2656 8.55371C11.5214 8.55371 7.62479 10.1326 4.57571 13.2905C1.52454 16.4494 0 20.495 0 25.4317C0 30.3683 1.52454 34.4827 4.57467 37.6394C7.62375 40.7984 11.5204 42.3762 16.2646 42.3762C21.6847 42.3762 25.7311 40.4195 28.3995 36.5049L23.126 31.3685C21.5578 33.6812 19.3979 34.8375 16.6462 34.8375V34.8386Z" fill="#70BAF2"/>
<path d="M81.3016 14.3677H74.2603V21.76C78.1486 21.76 81.3016 18.4504 81.3016 14.3677Z" fill="#111625"/>
<path d="M91.9477 16.7201C89.899 15.1531 87.2607 14.3691 84.0317 14.3691C83.9787 14.3691 83.9277 14.3713 83.8747 14.3724V20.1127C85.0883 20.2448 86.097 20.6248 86.8957 21.2592C87.9023 22.0618 88.4056 23.1373 88.4056 24.4859V28.0401C86.669 25.8901 84.013 24.8134 80.4377 24.8134C78.1113 24.8134 76.071 25.5243 74.3187 26.946C72.5643 28.3677 71.6887 30.5002 71.6887 33.3447C71.6887 36.1892 72.582 38.2212 74.3707 39.7696C76.1584 41.3201 78.181 42.0943 80.4387 42.0943C83.9454 42.0943 86.6014 40.9642 88.4067 38.7039V41.4381H95.0207V24.3756C95.0207 20.8399 93.9963 18.2881 91.9477 16.7201ZM88.4067 35.094C87.3304 36.6259 85.5594 37.3914 83.0947 37.3914C81.7407 37.3914 80.6124 37.0452 79.7097 36.3519C78.806 35.6607 78.3557 34.7118 78.3557 33.5085C78.3557 32.3052 78.806 31.294 79.7097 30.5832C80.6124 29.8723 81.7407 29.5175 83.0947 29.5175C85.5594 29.5175 87.3304 30.2829 88.4067 31.8138V35.095V35.094Z" fill="#70BAF2"/>
</svg>
