<svg width="32" height="32" viewBox="0 0 32 32" fill="none" xmlns="http://www.w3.org/2000/svg">
<path d="M22.6667 2.66699H9.33335C5.65146 2.66699 2.66669 5.65176 2.66669 9.33366V22.667C2.66669 26.3489 5.65146 29.3337 9.33335 29.3337H22.6667C26.3486 29.3337 29.3334 26.3489 29.3334 22.667V9.33366C29.3334 5.65176 26.3486 2.66699 22.6667 2.66699Z" stroke="#2C2C2E" stroke-width="2" stroke-linecap="round" stroke-linejoin="round"/>
<path d="M21.3334 15.1602C21.4979 16.2698 21.3084 17.4031 20.7917 18.3988C20.275 19.3946 19.4575 20.202 18.4555 20.7064C17.4535 21.2107 16.3179 21.3863 15.2104 21.2081C14.1029 21.0298 13.0797 20.5069 12.2865 19.7137C11.4932 18.9205 10.9703 17.8973 10.7921 16.7898C10.6139 15.6822 10.7894 14.5467 11.2938 13.5447C11.7981 12.5426 12.6056 11.7251 13.6013 11.2085C14.5971 10.6918 15.7304 10.5023 16.84 10.6668C17.9719 10.8347 19.0198 11.3621 19.8289 12.1712C20.6381 12.9804 21.1655 14.0283 21.3334 15.1602Z" stroke="#2C2C2E" stroke-width="2" stroke-linecap="round" stroke-linejoin="round"/>
<path d="M23.3333 8.66699H23.3466" stroke="#2C2C2E" stroke-width="2" stroke-linecap="round" stroke-linejoin="round"/>
</svg>
