<svg width="151" height="41" viewBox="0 0 151 41" fill="none" xmlns="http://www.w3.org/2000/svg">
<path d="M115.507 39.5752H122.526V32.5557C118.649 32.5557 115.507 35.6983 115.507 39.5752Z" fill="white"/>
<path d="M115.78 29.9919H122.375V21.7587C122.375 19.266 121.692 17.3109 120.325 15.8914C118.956 14.4719 116.923 13.7627 114.223 13.7627C110.553 13.7627 107.629 15.0605 105.448 17.6572V14.3867H98.8542V39.4657H105.448V22.5886C106.868 20.6159 108.771 19.629 111.16 19.629C114.24 19.629 115.78 21.1868 115.78 24.3024V29.9909V29.9919Z" fill="#70BAF2"/>
<path d="M32.5291 40.9228H40.782V32.6709C36.2239 32.6709 32.5291 36.3658 32.5291 40.9228Z" fill="#70BAF2"/>
<path d="M40.5308 0.0771484H32.7781V29.6549H40.5308V0.0771484Z" fill="white"/>
<path d="M150.5 0.317383H143.875V22.3817H150.5V0.317383Z" fill="white"/>
<path d="M62.4089 39.527H69.2777V32.6572C65.484 32.6572 62.4089 35.7333 62.4089 39.527Z" fill="white"/>
<path d="M67.8197 17.4971C65.5495 15.0075 62.5857 13.7627 58.9262 13.7627C55.2667 13.7627 52.1936 15.0002 49.806 17.4721C47.4172 19.9451 46.2234 22.9942 46.2234 26.6184C46.2234 30.4807 47.4599 33.5973 49.9328 35.9684C52.4058 38.3405 55.5391 39.525 59.3338 39.525C59.5252 39.525 59.7113 39.5198 59.8985 39.5156V34.3877C57.9684 34.3607 56.3887 33.8241 55.1679 32.7664C53.9137 31.6828 53.1857 30.3268 52.9819 28.7013H71.2244V27.2777C71.2244 23.2469 70.0888 19.9857 67.8197 17.4961V17.4971ZM52.88 24.3315C53.0495 22.9079 53.6423 21.6464 54.6583 20.5462C55.6753 19.4459 57.098 18.8948 58.9262 18.8948C60.8573 18.8948 62.3226 19.4543 63.322 20.5722C64.3213 21.6901 64.8725 22.9432 64.9734 24.3326H52.879L52.88 24.3315Z" fill="#70BAF2"/>
<path d="M143.874 17.5213C141.91 14.9703 139.341 13.6943 136.17 13.6943C132.999 13.6943 130.275 14.884 128.206 17.2623C126.138 19.6417 125.104 22.8302 125.104 26.8287C125.104 30.8272 126.138 34.0937 128.206 36.42C130.275 38.7463 132.929 39.9111 136.17 39.9111C139.412 39.9111 141.84 38.6361 143.874 36.0841V39.2902H150.493V14.3453H143.874V17.5213ZM143.874 31.2245C143.323 32.0523 142.512 32.7324 141.444 33.2669C140.375 33.8014 139.289 34.0687 138.186 34.0687C136.324 34.0687 134.807 33.3959 133.635 32.0523C132.463 30.7076 131.877 28.9668 131.877 26.8297C131.877 24.6927 132.463 22.8998 133.635 21.5552C134.807 20.2106 136.324 19.5388 138.186 19.5388C139.288 19.5388 140.375 19.806 141.444 20.3406C142.512 20.8751 143.322 21.5552 143.874 22.383V31.2255V31.2245Z" fill="#70BAF2"/>
<path d="M20.3123 8.22559C20.3123 12.9687 24.1579 16.8144 28.9011 16.8144V8.22559H20.3123Z" fill="white"/>
<path d="M17.146 33.2589C14.6886 33.2589 12.6878 32.4332 11.1424 30.7807C9.59605 29.1282 8.82338 26.9683 8.82338 24.2998C8.82338 21.6314 9.59605 19.4818 11.1424 17.8512C12.6878 16.2216 14.6886 15.4053 17.146 15.4053C17.1553 15.4053 17.1636 15.4063 17.174 15.4063V8.23391C17.0368 8.23183 16.9037 8.22559 16.7654 8.22559C12.0212 8.22559 8.12455 9.72933 5.07546 12.7368C2.0243 15.7453 0.499756 19.5983 0.499756 24.2998C0.499756 29.0014 2.0243 32.9198 5.07442 35.9263C8.12351 38.9348 12.0201 40.4375 16.7643 40.4375C22.1844 40.4375 26.2308 38.574 28.8993 34.8458L23.6258 29.954C22.0576 32.1565 19.8976 33.2578 17.146 33.2578V33.2589Z" fill="#70BAF2"/>
<path d="M81.8009 13.7607H74.7595V20.8011C78.6478 20.8011 81.8009 17.6491 81.8009 13.7607Z" fill="white"/>
<path d="M92.4472 16.0017C90.3985 14.5094 87.7602 13.7627 84.5312 13.7627C84.4782 13.7627 84.4272 13.7648 84.3742 13.7658V19.2327C85.5878 19.3586 86.5965 19.7205 87.3952 20.3247C88.4018 21.089 88.9052 22.1134 88.9052 23.3977V26.7827C87.1685 24.735 84.5125 23.7097 80.9372 23.7097C78.6109 23.7097 76.5705 24.3867 74.8182 25.7406C73.0639 27.0946 72.1882 29.1256 72.1882 31.8347C72.1882 34.5437 73.0815 36.479 74.8702 37.9536C76.6579 39.4303 78.6805 40.1676 80.9382 40.1676C84.4449 40.1676 87.1009 39.0913 88.9062 36.9387V39.5426H95.5202V23.2926C95.5202 19.9253 94.4958 17.495 92.4472 16.0017ZM88.9062 33.5006C87.8299 34.9597 86.0589 35.6887 83.5942 35.6887C82.2402 35.6887 81.1119 35.359 80.2092 34.6986C79.3055 34.0404 78.8552 33.1367 78.8552 31.9907C78.8552 30.8446 79.3055 29.8817 80.2092 29.2047C81.1119 28.5277 82.2402 28.1897 83.5942 28.1897C86.0589 28.1897 87.8299 28.9187 88.9062 30.3767V33.5017V33.5006Z" fill="#70BAF2"/>
</svg>
