<svg width="1300" height="1161" viewBox="0 0 1300 1161" fill="none" xmlns="http://www.w3.org/2000/svg">
<g filter="url(#filter0_d_603_13346)">
<path fill-rule="evenodd" clip-rule="evenodd" d="M726.534 -625.059C1050.96 -596.883 1054.55 -102.913 1268.05 142.978C1450.91 353.588 1802.69 412.3 1863.57 684.494C1931.59 988.634 1795.62 1312.94 1580.06 1538.02C1360.4 1767.36 1041.38 1913.15 726.534 1871.72C436.58 1833.56 288.11 1536.03 71.5378 1339.49C-165.847 1124.07 -584.305 1005.04 -581.722 684.494C-579.14 363.91 -144.574 266.774 82.008 39.9675C308.818 -187.067 406.821 -652.827 726.534 -625.059Z" stroke="#F2F8FF" stroke-opacity="0.2"/>
<path fill-rule="evenodd" clip-rule="evenodd" d="M714.23 -581.103C1026.67 -553.967 1030.14 -78.2353 1235.75 158.576C1411.86 361.41 1750.65 417.954 1809.28 680.098C1874.79 973.009 1743.84 1285.34 1536.24 1502.11C1324.7 1722.99 1017.46 1863.39 714.23 1823.49C434.981 1786.74 291.993 1500.19 83.4175 1310.91C-145.202 1103.44 -548.21 988.813 -545.723 680.098C-543.235 371.351 -124.715 277.802 93.5011 59.3694C311.937 -159.283 406.321 -607.846 714.23 -581.103Z" stroke="#F2F8FF" stroke-opacity="0.2"/>
<path fill-rule="evenodd" clip-rule="evenodd" d="M723.985 -541.138C1026.94 -514.826 1030.3 -53.5342 1229.68 176.089C1400.44 372.766 1728.95 427.594 1785.8 681.781C1849.32 965.8 1722.34 1268.65 1521.04 1478.84C1315.92 1693.01 1018.01 1829.16 723.985 1790.46C453.212 1754.83 314.565 1476.98 112.32 1293.45C-109.36 1092.27 -500.135 981.124 -497.723 681.781C-495.311 382.406 -89.4946 291.696 122.098 79.8937C333.903 -132.121 425.423 -567.069 723.985 -541.138Z" stroke="#F2F8FF" stroke-opacity="0.2"/>
<path fill-rule="evenodd" clip-rule="evenodd" d="M720.673 -509.174C1013.88 -483.708 1017.14 -37.2598 1210.09 184.975C1375.36 375.323 1693.3 428.387 1748.32 674.395C1809.8 949.275 1686.91 1242.38 1492.08 1445.8C1293.56 1653.09 1005.23 1784.85 720.673 1747.4C458.613 1712.92 324.427 1444.01 128.69 1266.38C-85.857 1071.68 -464.058 964.106 -461.724 674.395C-459.389 384.653 -66.6307 296.862 138.153 91.8747C343.143 -113.318 431.718 -534.27 720.673 -509.174Z" stroke="#F2F8FF" stroke-opacity="0.2"/>
<path fill-rule="evenodd" clip-rule="evenodd" d="M720.871 -462.498C1002.23 -438.062 1005.35 -9.66292 1190.5 203.587C1349.09 386.24 1654.17 437.159 1706.97 673.221C1765.96 936.988 1648.04 1218.24 1461.09 1413.44C1270.6 1612.35 993.928 1738.79 720.871 1702.85C469.406 1669.76 340.644 1411.72 152.821 1241.27C-53.0529 1054.44 -415.964 951.22 -413.724 673.221C-411.484 395.192 -34.6039 310.951 161.901 114.251C358.604 -82.6465 443.598 -486.58 720.871 -462.498Z" stroke="#F2F8FF" stroke-opacity="0.2"/>
<path fill-rule="evenodd" clip-rule="evenodd" d="M717.628 -405.267C985.286 -382.021 988.254 25.52 1164.4 228.387C1315.26 402.147 1605.49 450.586 1655.71 675.155C1711.83 926.08 1599.66 1193.64 1421.81 1379.34C1240.59 1568.56 977.39 1688.84 717.628 1654.65C478.407 1623.17 355.914 1377.7 177.236 1215.55C-18.6141 1037.82 -363.855 939.618 -361.724 675.155C-359.593 410.663 -1.06339 330.523 185.874 143.401C372.999 -43.9101 453.855 -428.177 717.628 -405.267Z" stroke="#F2F8FF" stroke-opacity="0.2"/>
<path fill-rule="evenodd" clip-rule="evenodd" d="M699.512 -342.206C949.782 -320.47 952.558 60.597 1117.26 250.286C1258.33 412.758 1529.7 458.051 1576.66 668.031C1629.13 902.656 1524.24 1152.84 1357.95 1326.47C1188.5 1503.4 942.4 1615.87 699.512 1583.9C475.831 1554.46 361.295 1324.93 194.224 1173.32C11.0966 1007.13 -311.717 915.315 -309.725 668.031C-307.733 420.721 27.5072 345.787 202.301 170.82C377.27 -4.32281 452.874 -363.627 699.512 -342.206Z" stroke="#F2F8FF" stroke-opacity="0.2"/>
<path fill-rule="evenodd" clip-rule="evenodd" d="M695.022 -269.4C926.324 -249.311 928.89 102.875 1081.11 278.187C1211.48 428.345 1462.29 470.205 1505.69 664.272C1554.19 881.114 1457.25 1112.33 1303.56 1272.81C1146.95 1436.33 919.501 1540.27 695.022 1510.73C488.293 1483.52 382.438 1271.39 228.029 1131.26C58.781 977.674 -239.567 892.814 -237.726 664.272C-235.884 435.705 73.9479 366.45 235.494 204.744C397.203 42.875 467.076 -289.198 695.022 -269.4Z" stroke="#F2F8FF" stroke-opacity="0.2"/>
<path fill-rule="evenodd" clip-rule="evenodd" d="M702.901 -233.433C925.247 -214.122 927.713 124.426 1074.03 292.949C1199.36 437.293 1440.46 477.532 1482.18 664.083C1528.8 872.528 1435.61 1094.79 1287.87 1249.05C1137.33 1406.24 918.688 1506.16 702.901 1477.76C504.178 1451.61 402.423 1247.69 253.993 1112.99C91.2987 965.349 -195.496 883.775 -193.726 664.083C-191.956 444.367 105.878 377.794 261.169 222.35C416.615 66.7494 483.783 -252.464 702.901 -233.433Z" stroke="#F2F8FF" stroke-opacity="0.2"/>
<path fill-rule="evenodd" clip-rule="evenodd" d="M692.407 -189.472C904.215 -171.076 906.564 151.427 1045.95 311.964C1165.34 449.466 1395.01 487.798 1434.75 665.508C1479.16 864.074 1390.39 1075.8 1249.65 1222.75C1106.25 1372.49 897.966 1467.67 692.407 1440.62C503.102 1415.71 406.169 1221.46 264.773 1093.14C109.79 952.496 -163.413 874.788 -161.726 665.508C-160.04 456.206 123.679 392.788 271.609 244.71C419.689 96.4842 483.673 -207.601 692.407 -189.472Z" stroke="#F2F8FF" stroke-opacity="0.2"/>
<path fill-rule="evenodd" clip-rule="evenodd" d="M695.788 -153.512C896.531 -136.077 898.757 169.578 1030.86 321.729C1144.01 452.048 1361.68 488.378 1399.35 656.804C1441.44 844.998 1357.31 1045.67 1223.92 1184.94C1088.01 1326.86 890.609 1417.07 695.788 1391.43C516.371 1367.82 424.502 1183.71 290.493 1062.1C143.606 928.8 -115.325 855.152 -113.727 656.804C-112.129 458.436 156.769 398.331 296.972 257.989C437.316 117.506 497.958 -170.694 695.788 -153.512Z" stroke="#F2F8FF" stroke-opacity="0.2"/>
<path fill-rule="evenodd" clip-rule="evenodd" d="M694.42 -97.5645C880.937 -81.3651 883.006 202.63 1005.75 343.998C1110.88 465.083 1313.13 498.837 1348.13 655.328C1387.23 830.185 1309.06 1016.63 1185.13 1146.04C1058.85 1277.9 875.435 1361.71 694.42 1337.89C527.718 1315.95 442.359 1144.89 317.847 1031.9C181.369 908.049 -59.2122 839.62 -57.7274 655.328C-56.2424 471.017 193.599 415.171 323.867 284.775C454.265 154.248 510.609 -113.529 694.42 -97.5645Z" stroke="#F2F8FF" stroke-opacity="0.2"/>
<path fill-rule="evenodd" clip-rule="evenodd" d="M697.302 -41.6127C870.647 -26.5573 872.569 237.381 986.645 368.766C1084.35 481.299 1272.31 512.67 1304.84 658.11C1341.19 820.618 1268.54 993.9 1153.36 1114.16C1035.99 1236.71 865.533 1314.61 697.302 1292.47C542.373 1272.08 463.042 1113.1 347.323 1008.09C220.483 892.983 -3.10787 829.386 -1.7279 658.11C-0.347776 486.815 231.85 434.913 352.917 313.725C474.107 192.416 526.472 -56.4496 697.302 -41.6127Z" stroke="#F2F8FF" stroke-opacity="0.2"/>
<path fill-rule="evenodd" clip-rule="evenodd" d="M693.809 14.3332C852.402 28.1073 854.16 269.583 958.528 389.786C1047.92 492.742 1219.88 521.443 1249.64 654.505C1282.9 803.183 1216.43 961.717 1111.05 1071.75C1003.67 1183.86 847.723 1255.13 693.809 1234.88C552.066 1216.22 479.487 1070.77 373.616 974.698C257.571 869.389 53.009 811.205 54.2716 654.505C55.5342 497.788 267.97 450.304 378.734 339.43C489.61 228.445 537.518 0.759044 693.809 14.3332Z" stroke="#F2F8FF" stroke-opacity="0.2"/>
<path fill-rule="evenodd" clip-rule="evenodd" d="M700.94 70.2891C847.414 83.0106 849.039 306.035 945.431 417.053C1027.99 512.142 1186.82 538.65 1214.3 661.544C1245.01 798.861 1183.63 945.282 1086.3 1046.9C987.128 1150.45 843.094 1216.28 700.94 1197.57C570.028 1180.34 502.995 1046.01 405.214 957.27C298.036 860.008 109.105 806.27 110.271 661.544C111.437 516.802 307.641 472.946 409.941 370.544C512.344 268.04 556.592 57.7521 700.94 70.2891Z" stroke="#F2F8FF" stroke-opacity="0.2"/>
<path fill-rule="evenodd" clip-rule="evenodd" d="M697.448 126.235C829.169 137.675 830.63 338.237 917.314 438.073C991.56 523.585 1134.39 547.423 1159.1 657.939C1186.72 781.425 1131.52 913.099 1043.99 1004.49C954.811 1097.61 825.284 1156.8 697.448 1139.98C579.721 1124.48 519.439 1003.68 431.507 923.88C335.124 836.414 165.222 788.088 166.271 657.939C167.319 527.776 343.761 488.337 435.758 396.249C527.847 304.068 567.638 114.961 697.448 126.235Z" stroke="#F2F8FF" stroke-opacity="0.2"/>
<path fill-rule="evenodd" clip-rule="evenodd" d="M692.482 182.183C810.077 192.397 811.381 371.449 888.769 460.579C955.053 536.92 1082.56 558.201 1104.63 656.865C1129.29 767.109 1080 884.661 1001.86 966.247C922.245 1049.38 806.608 1102.23 692.482 1087.21C587.381 1073.37 533.564 965.526 455.062 894.286C369.015 816.2 217.334 773.057 218.27 656.865C219.206 540.661 376.726 505.452 458.857 423.24C541.07 340.945 576.594 172.118 692.482 182.183Z" stroke="#F2F8FF" stroke-opacity="0.2"/>
<path fill-rule="evenodd" clip-rule="evenodd" d="M688.837 226.142C792.634 235.365 793.785 397.064 862.092 477.556C920.598 546.498 1033.15 565.717 1052.62 654.819C1074.39 754.378 1030.88 860.538 961.916 934.216C891.64 1009.29 789.572 1057.02 688.837 1043.45C596.068 1030.96 548.566 933.565 479.276 869.23C403.326 798.712 269.443 759.75 270.27 654.819C271.096 549.877 410.132 518.08 482.626 443.836C555.192 369.517 586.547 217.052 688.837 226.142Z" stroke="#F2F8FF" stroke-opacity="0.2"/>
<path fill-rule="evenodd" clip-rule="evenodd" d="M673.465 270.098C771.466 278.287 772.553 421.844 837.046 493.305C892.285 554.512 998.548 571.575 1016.94 650.68C1037.49 739.069 996.413 833.318 931.296 898.73C864.943 965.384 768.575 1007.75 673.465 995.711C585.876 984.622 541.027 898.152 475.605 841.035C403.896 778.429 277.489 743.838 278.269 650.68C279.05 557.512 410.322 529.282 478.768 463.368C547.282 397.387 576.887 262.028 673.465 270.098Z" stroke="#F2F8FF" stroke-opacity="0.2"/>
<path fill-rule="evenodd" clip-rule="evenodd" d="M663.719 306.064C754.343 313.443 755.349 442.802 814.987 507.195C866.068 562.349 964.334 577.724 981.339 649.006C1000.34 728.653 962.359 813.581 902.143 872.524C840.785 932.585 751.67 970.764 663.719 959.913C582.723 949.92 541.249 872.003 480.752 820.534C414.44 764.12 297.548 732.95 298.269 649.006C298.991 565.052 420.383 539.615 483.676 480.219C547.034 420.764 574.41 298.792 663.719 306.064Z" stroke="#F2F8FF" stroke-opacity="0.2"/>
<path fill-rule="evenodd" clip-rule="evenodd" d="M667.1 338.025C746.659 344.503 747.542 458.069 799.899 514.6C844.743 563.02 931.011 576.518 945.94 639.097C962.622 709.019 929.277 783.578 876.414 835.324C822.547 888.053 744.312 921.57 667.1 912.044C595.993 903.271 559.582 834.867 506.471 789.683C448.256 740.156 345.635 712.792 346.269 639.097C346.902 565.393 453.473 543.061 509.039 490.917C564.661 438.721 588.695 331.641 667.1 338.025Z" stroke="#F2F8FF" stroke-opacity="0.2"/>
<path fill-rule="evenodd" clip-rule="evenodd" d="M657.981 393.98C724.369 399.385 725.105 494.149 768.794 541.32C806.214 581.724 878.199 592.987 890.657 645.205C904.576 703.551 876.752 765.766 832.641 808.945C787.692 852.943 722.411 880.912 657.981 872.963C598.647 865.642 568.265 808.563 523.947 770.86C475.37 729.533 389.74 706.699 390.268 645.205C390.797 583.704 479.723 565.07 526.09 521.559C572.503 478.005 592.557 388.653 657.981 393.98Z" stroke="#F2F8FF" stroke-opacity="0.2"/>
<path fill-rule="evenodd" clip-rule="evenodd" d="M663.736 449.947C720.64 454.581 721.271 535.806 758.718 576.239C790.793 610.871 852.494 620.525 863.172 665.283C875.103 715.294 851.254 768.621 813.444 805.632C774.917 843.344 718.961 867.317 663.736 860.504C612.878 854.229 586.837 805.304 548.85 772.987C507.212 737.564 433.815 717.993 434.268 665.283C434.721 612.568 510.944 596.596 550.686 559.301C590.469 521.968 607.659 445.381 663.736 449.947Z" stroke="#F2F8FF" stroke-opacity="0.2"/>
<path fill-rule="evenodd" clip-rule="evenodd" d="M660.992 505.908C706.304 509.597 706.807 574.277 736.626 606.473C762.167 634.05 811.3 641.738 819.802 677.379C829.303 717.202 810.312 759.666 780.204 789.138C749.525 819.168 704.968 838.258 660.992 832.832C620.494 827.836 599.757 788.877 569.509 763.143C536.353 734.936 477.907 719.351 478.267 677.379C478.628 635.402 539.324 622.683 570.971 592.985C602.65 563.258 616.338 502.272 660.992 505.908Z" stroke="#F2F8FF" stroke-opacity="0.2"/>
<path fill-rule="evenodd" clip-rule="evenodd" d="M649.749 561.861C681.362 564.435 681.713 609.56 702.517 632.023C720.336 651.262 754.615 656.626 760.547 681.492C767.175 709.275 753.926 738.901 732.92 759.463C711.516 780.414 680.43 793.733 649.749 789.948C621.495 786.462 607.027 759.281 585.923 741.327C562.792 721.648 522.015 710.775 522.267 681.492C522.518 652.205 564.865 643.332 586.944 622.612C609.045 601.872 618.595 559.324 649.749 561.861Z" stroke="#F2F8FF" stroke-opacity="0.2"/>
<path fill-rule="evenodd" clip-rule="evenodd" d="M647.005 605.821C667.027 607.451 667.249 636.03 680.425 650.257C691.71 662.442 713.42 665.839 717.177 681.587C721.375 699.183 712.984 717.947 699.68 730.969C686.125 744.238 666.436 752.673 647.005 750.276C629.111 748.068 619.948 730.854 606.582 719.483C591.932 707.019 566.107 700.133 566.266 681.587C566.426 663.039 593.245 657.419 607.228 644.297C621.226 631.161 627.274 604.214 647.005 605.821Z" stroke="#F2F8FF" stroke-opacity="0.2"/>
</g>
<defs>
<filter id="filter0_d_603_13346" x="-586.234" y="-626.748" width="2471.94" height="2513.99" filterUnits="userSpaceOnUse" color-interpolation-filters="sRGB">
<feFlood flood-opacity="0" result="BackgroundImageFix"/>
<feColorMatrix in="SourceAlpha" type="matrix" values="0 0 0 0 0 0 0 0 0 0 0 0 0 0 0 0 0 0 127 0" result="hardAlpha"/>
<feOffset dy="4"/>
<feGaussianBlur stdDeviation="2"/>
<feComposite in2="hardAlpha" operator="out"/>
<feColorMatrix type="matrix" values="0 0 0 0 0 0 0 0 0 0 0 0 0 0 0 0 0 0 0.25 0"/>
<feBlend mode="normal" in2="BackgroundImageFix" result="effect1_dropShadow_603_13346"/>
<feBlend mode="normal" in="SourceGraphic" in2="effect1_dropShadow_603_13346" result="shape"/>
</filter>
</defs>
</svg>
