<svg width="895" height="1002" viewBox="0 0 895 1002" fill="none" xmlns="http://www.w3.org/2000/svg">
<path fill-rule="evenodd" clip-rule="evenodd" d="M315.01 -61.433C477.686 -47.9914 479.49 187.656 586.544 304.957C678.238 405.428 854.63 433.436 885.156 563.286C919.265 708.375 851.085 863.083 742.994 970.456C632.853 1079.87 472.887 1149.42 315.01 1129.65C169.617 1111.45 95.1691 969.507 -13.4273 875.75C-132.46 772.983 -342.289 716.203 -340.994 563.286C-339.699 410.352 -121.793 364.014 -8.1772 255.816C105.553 147.51 154.695 -74.6795 315.01 -61.433Z" stroke="#0081EB" stroke-opacity="0.2" stroke-width="0.6"/>
<path fill-rule="evenodd" clip-rule="evenodd" d="M308.839 -40.4635C465.509 -27.5181 467.246 199.428 570.348 312.399C658.657 409.16 828.536 436.134 857.935 561.19C890.784 700.922 825.121 849.917 721.022 953.326C614.947 1058.7 460.887 1125.68 308.839 1106.64C168.815 1089.11 97.1156 952.412 -7.47122 862.117C-122.109 763.144 -324.191 708.461 -322.943 561.19C-321.696 413.903 -111.836 369.275 -2.41495 265.072C107.116 160.765 154.444 -53.2209 308.839 -40.4635Z" stroke="#0081EB" stroke-opacity="0.2" stroke-width="0.6"/>
<path fill-rule="evenodd" clip-rule="evenodd" d="M313.732 -21.398C465.646 -8.84564 467.331 211.212 567.303 320.753C652.931 414.578 817.654 440.733 846.16 561.992C878.012 697.483 814.343 841.956 713.403 942.226C610.549 1044.4 461.165 1109.35 313.732 1090.89C177.958 1073.89 108.435 941.34 7.02304 853.785C-104.135 757.817 -300.083 704.793 -298.873 561.992C-297.664 419.176 -94.1737 375.903 11.9258 274.864C118.132 173.722 164.023 -33.7682 313.732 -21.398Z" stroke="#0081EB" stroke-opacity="0.2" stroke-width="0.6"/>
<path fill-rule="evenodd" clip-rule="evenodd" d="M312.067 -6.14965C459.093 5.9988 460.723 218.976 557.478 324.992C640.351 415.797 799.773 441.111 827.363 558.469C858.19 689.6 796.569 829.424 698.877 926.467C599.332 1025.35 454.755 1088.21 312.067 1070.34C180.661 1053.89 113.376 925.61 15.2268 840.873C-92.3544 747.992 -281.997 696.675 -280.827 558.469C-279.656 420.248 -82.7137 378.367 19.9718 280.579C122.761 182.692 167.175 -18.1218 312.067 -6.14965Z" stroke="#0081EB" stroke-opacity="0.2" stroke-width="0.6"/>
<path fill-rule="evenodd" clip-rule="evenodd" d="M312.172 16.1165C453.253 27.7738 454.818 232.141 547.662 333.871C627.184 421.005 780.161 445.296 806.635 557.908C836.216 683.738 777.086 817.91 683.344 911.03C587.824 1005.92 449.091 1066.23 312.172 1049.09C186.078 1033.3 121.513 910.207 27.332 828.895C-75.8999 739.77 -257.876 690.527 -256.753 557.908C-255.629 425.276 -66.649 385.088 31.8852 291.253C130.518 197.324 173.137 4.62835 312.172 16.1165Z" stroke="#0081EB" stroke-opacity="0.2" stroke-width="0.6"/>
<path fill-rule="evenodd" clip-rule="evenodd" d="M310.541 43.4182C444.754 54.508 446.242 248.924 534.566 345.702C610.216 428.593 755.745 451.701 780.93 558.831C809.07 678.534 752.82 806.173 663.642 894.759C572.772 985.026 440.795 1042.41 310.541 1026.1C190.587 1011.08 129.166 893.976 39.5702 816.624C-58.6354 731.838 -231.751 684.992 -230.683 558.831C-229.614 432.656 -49.8349 394.425 43.9017 305.159C137.733 215.803 178.276 32.4894 310.541 43.4182Z" stroke="#0081EB" stroke-opacity="0.2" stroke-width="0.6"/>
<path fill-rule="evenodd" clip-rule="evenodd" d="M301.465 73.5014C426.959 83.8707 428.351 265.658 510.936 356.148C581.672 433.655 717.747 455.262 741.296 555.433C767.609 667.36 715.013 786.707 631.628 869.539C546.661 953.942 423.257 1007.59 301.465 992.346C189.303 978.303 131.871 868.807 48.0961 796.479C-43.73 717.201 -205.6 673.399 -204.601 555.433C-203.602 437.454 -35.5012 401.707 52.1463 318.239C139.882 234.688 177.792 63.2825 301.465 73.5014Z" stroke="#0081EB" stroke-opacity="0.2" stroke-width="0.6"/>
<path fill-rule="evenodd" clip-rule="evenodd" d="M299.211 108.233C415.194 117.817 416.481 285.826 492.807 369.459C558.182 441.091 683.944 461.06 705.708 553.639C730.027 657.083 681.417 767.385 604.351 843.939C525.824 921.946 411.773 971.532 299.211 957.439C195.551 944.46 142.472 843.263 65.0456 776.417C-19.8211 703.147 -169.423 662.665 -168.5 553.639C-167.576 444.602 -12.216 411.564 68.7887 334.423C149.875 257.204 184.912 98.789 299.211 108.233Z" stroke="#0081EB" stroke-opacity="0.2" stroke-width="0.6"/>
<path fill-rule="evenodd" clip-rule="evenodd" d="M303.158 125.392C414.65 134.604 415.886 296.107 489.257 376.501C552.101 445.36 672.993 464.556 693.914 553.549C717.29 652.988 670.563 759.018 596.482 832.608C520.995 907.593 411.361 955.259 303.158 941.712C203.511 929.236 152.488 831.957 78.0601 767.7C-3.52017 697.267 -147.329 658.353 -146.441 553.549C-145.554 448.735 3.7905 416.976 81.6583 342.822C159.604 268.593 193.285 116.313 303.158 125.392Z" stroke="#0081EB" stroke-opacity="0.2" stroke-width="0.6"/>
<path fill-rule="evenodd" clip-rule="evenodd" d="M297.901 146.362C404.108 155.138 405.286 308.987 475.18 385.571C535.045 451.166 650.207 469.452 670.137 554.228C692.406 648.954 647.893 749.959 577.323 820.061C505.414 891.493 400.975 936.9 297.901 923.995C202.977 912.11 154.371 819.442 83.4708 758.23C5.75689 691.135 -131.236 654.065 -130.391 554.228C-129.545 454.381 12.7211 424.128 86.8985 353.488C161.151 282.777 193.234 137.714 297.901 146.362Z" stroke="#0081EB" stroke-opacity="0.2" stroke-width="0.6"/>
<path fill-rule="evenodd" clip-rule="evenodd" d="M299.586 163.518C400.245 171.835 401.361 317.647 467.604 390.23C524.342 452.399 633.488 469.73 652.377 550.077C673.482 639.855 631.295 735.584 564.411 802.023C496.259 869.724 397.276 912.759 299.586 900.528C209.62 889.264 163.554 801.436 96.3574 743.422C22.7031 679.832 -107.134 644.699 -106.332 550.077C-105.531 455.446 29.3035 426.773 99.606 359.823C169.979 292.806 200.387 155.321 299.586 163.518Z" stroke="#0081EB" stroke-opacity="0.2" stroke-width="0.6"/>
<path fill-rule="evenodd" clip-rule="evenodd" d="M298.905 190.208C392.432 197.935 393.469 333.415 455.017 400.854C507.734 458.617 609.146 474.72 626.696 549.373C646.306 632.788 607.107 721.733 544.964 783.465C481.641 846.367 389.673 886.353 298.905 874.988C215.316 864.523 172.514 782.919 110.079 729.016C41.6445 669.933 -78.9911 637.289 -78.2466 549.373C-77.5019 461.448 47.7772 434.807 113.098 372.602C178.484 310.334 206.737 182.592 298.905 190.208Z" stroke="#0081EB" stroke-opacity="0.2" stroke-width="0.6"/>
<path fill-rule="evenodd" clip-rule="evenodd" d="M300.356 216.898C387.277 224.08 388.241 349.992 445.443 412.668C494.437 466.352 588.687 481.318 604.997 550.699C623.222 628.223 586.792 710.887 529.037 768.259C470.187 826.719 384.713 863.88 300.356 853.319C222.67 843.592 182.89 767.752 124.865 717.655C61.2633 662.745 -50.8528 632.406 -50.1609 550.699C-49.4688 468.983 66.9629 444.224 127.67 386.411C188.439 328.541 214.696 209.82 300.356 216.898Z" stroke="#0081EB" stroke-opacity="0.2" stroke-width="0.6"/>
<path fill-rule="evenodd" clip-rule="evenodd" d="M298.599 243.587C378.122 250.158 379.004 365.353 431.338 422.696C476.162 471.811 562.391 485.503 577.313 548.979C593.987 619.906 560.658 695.534 507.818 748.023C453.976 801.508 375.777 835.507 298.599 825.844C227.524 816.945 191.13 747.559 138.043 701.727C79.8544 651.489 -22.72 623.732 -22.0869 548.979C-21.4538 474.218 85.0689 451.566 140.61 398.674C196.206 345.728 220.229 237.112 298.599 243.587Z" stroke="#0081EB" stroke-opacity="0.2" stroke-width="0.6"/>
<path fill-rule="evenodd" clip-rule="evenodd" d="M302.176 270.281C375.623 276.349 376.438 382.743 424.772 435.703C466.172 481.065 545.811 493.711 559.594 552.337C574.993 617.844 544.211 687.693 495.409 736.172C445.681 785.57 373.457 816.971 302.176 808.046C236.532 799.827 202.92 735.743 153.889 693.413C100.147 647.014 5.41018 621.378 5.99488 552.337C6.57964 483.289 104.963 462.367 156.26 413.517C207.608 364.617 229.795 264.3 302.176 270.281Z" stroke="#0081EB" stroke-opacity="0.2" stroke-width="0.6"/>
<path fill-rule="evenodd" clip-rule="evenodd" d="M300.423 296.971C366.473 302.428 367.205 398.106 410.671 445.732C447.901 486.525 519.519 497.897 531.913 550.619C545.762 609.528 518.08 672.342 474.193 715.938C429.474 760.36 364.524 788.598 300.423 780.573C241.391 773.182 211.163 715.552 167.071 677.485C118.742 635.76 33.5469 612.706 34.0727 550.619C34.5986 488.525 123.073 469.71 169.203 425.78C215.379 381.806 235.332 291.592 300.423 296.971Z" stroke="#0081EB" stroke-opacity="0.2" stroke-width="0.6"/>
<path fill-rule="evenodd" clip-rule="evenodd" d="M297.933 323.661C356.899 328.533 357.553 413.949 396.357 456.468C429.594 492.887 493.532 503.039 504.597 550.106C516.961 602.698 492.247 658.776 453.067 697.696C413.143 737.355 355.159 762.565 297.933 755.4C245.231 748.801 218.246 697.352 178.882 663.367C135.735 626.117 59.6773 605.535 60.1467 550.106C60.6162 494.672 139.602 477.875 180.785 438.656C222.009 399.398 239.822 318.859 297.933 323.661Z" stroke="#0081EB" stroke-opacity="0.2" stroke-width="0.6"/>
<path fill-rule="evenodd" clip-rule="evenodd" d="M296.105 344.629C348.152 349.029 348.729 426.167 382.98 464.566C412.317 497.454 468.752 506.623 478.519 549.129C489.432 596.623 467.618 647.266 433.035 682.414C397.796 718.229 346.616 740.996 296.105 734.525C249.587 728.567 225.768 682.104 191.023 651.413C152.94 617.772 85.8063 599.185 86.2207 549.129C86.635 499.066 156.353 483.898 192.703 448.479C229.09 413.026 244.813 340.293 296.105 344.629Z" stroke="#0081EB" stroke-opacity="0.2" stroke-width="0.6"/>
<path fill-rule="evenodd" clip-rule="evenodd" d="M288.393 365.6C337.534 369.506 338.079 437.99 370.418 472.08C398.116 501.279 451.401 509.419 460.622 547.156C470.925 589.321 450.33 634.283 417.678 665.487C384.407 697.284 336.084 717.496 288.393 711.752C244.473 706.462 221.984 665.212 189.179 637.964C153.222 608.098 89.8372 591.596 90.2284 547.156C90.6196 502.71 156.444 489.243 190.765 457.799C225.121 426.323 239.965 361.75 288.393 365.6Z" stroke="#0081EB" stroke-opacity="0.2" stroke-width="0.6"/>
<path fill-rule="evenodd" clip-rule="evenodd" d="M283.508 382.758C328.951 386.278 329.455 447.989 359.359 478.707C384.973 505.018 434.247 512.353 442.774 546.358C452.302 584.353 433.256 624.868 403.062 652.987C372.295 681.639 327.61 699.852 283.508 694.675C242.894 689.908 222.098 652.738 191.762 628.185C158.512 601.273 99.8977 586.403 100.259 546.358C100.621 506.308 161.491 494.173 193.229 465.839C224.998 437.476 238.726 379.289 283.508 382.758Z" stroke="#0081EB" stroke-opacity="0.2" stroke-width="0.6"/>
<path fill-rule="evenodd" clip-rule="evenodd" d="M285.209 398.004C325.103 401.095 325.545 455.271 351.799 482.239C374.286 505.337 417.543 511.777 425.029 541.63C433.394 574.986 416.674 610.554 390.166 635.24C363.156 660.393 323.926 676.383 285.209 671.839C249.554 667.653 231.296 635.021 204.665 613.466C175.473 589.84 124.016 576.786 124.333 541.63C124.651 506.47 178.089 495.816 205.952 470.941C233.843 446.041 245.894 394.959 285.209 398.004Z" stroke="#0081EB" stroke-opacity="0.2" stroke-width="0.6"/>
<path fill-rule="evenodd" clip-rule="evenodd" d="M280.632 424.698C313.921 427.277 314.291 472.484 336.197 494.987C354.961 514.261 391.057 519.634 397.304 544.545C404.283 572.379 390.331 602.058 368.212 622.656C345.674 643.646 312.939 656.988 280.632 653.196C250.88 649.704 235.646 622.474 213.423 604.488C189.065 584.773 146.127 573.88 146.392 544.545C146.657 515.206 191.248 506.316 214.497 485.56C237.77 464.782 247.827 422.157 280.632 424.698Z" stroke="#0081EB" stroke-opacity="0.2" stroke-width="0.6"/>
<path fill-rule="evenodd" clip-rule="evenodd" d="M283.518 451.396C312.051 453.607 312.367 492.355 331.145 511.644C347.228 528.165 378.167 532.77 383.521 554.122C389.504 577.979 377.545 603.419 358.586 621.075C339.267 639.065 311.209 650.502 283.518 647.251C258.016 644.258 244.957 620.919 225.909 605.502C205.031 588.603 168.227 579.267 168.454 554.122C168.681 528.974 206.902 521.355 226.83 503.563C246.779 485.754 255.398 449.218 283.518 451.396Z" stroke="#0081EB" stroke-opacity="0.2" stroke-width="0.6"/>
<path fill-rule="evenodd" clip-rule="evenodd" d="M282.149 478.092C304.87 479.852 305.122 510.708 320.074 526.067C332.881 539.222 357.518 542.89 361.781 559.892C366.545 578.89 357.023 599.147 341.926 613.206C326.542 627.532 304.2 636.639 282.149 634.051C261.842 631.667 251.443 613.082 236.276 600.806C219.65 587.349 190.343 579.915 190.524 559.892C190.705 539.867 221.14 533.8 237.009 519.632C252.894 505.451 259.757 476.358 282.149 478.092Z" stroke="#0081EB" stroke-opacity="0.2" stroke-width="0.6"/>
<path fill-rule="evenodd" clip-rule="evenodd" d="M276.511 504.786C292.362 506.013 292.538 527.54 302.97 538.256C311.905 547.434 329.094 549.993 332.068 561.855C335.392 575.109 328.748 589.242 318.215 599.051C307.483 609.046 291.895 615.4 276.511 613.594C262.343 611.931 255.088 598.965 244.506 590.4C232.907 581.012 212.46 575.825 212.587 561.855C212.713 547.884 233.946 543.651 245.018 533.767C256.1 523.873 260.889 503.575 276.511 504.786Z" stroke="#0081EB" stroke-opacity="0.2" stroke-width="0.6"/>
<path fill-rule="evenodd" clip-rule="evenodd" d="M275.126 525.755C285.166 526.533 285.277 540.166 291.884 546.953C297.543 552.766 308.429 554.386 310.313 561.899C312.418 570.293 308.21 579.244 301.539 585.456C294.742 591.787 284.87 595.81 275.126 594.667C266.153 593.614 261.559 585.402 254.857 579.977C247.511 574.031 234.561 570.746 234.641 561.899C234.721 553.051 248.169 550.37 255.181 544.11C262.2 537.844 265.232 524.988 275.126 525.755Z" stroke="#0081EB" stroke-opacity="0.2" stroke-width="0.6"/>
</svg>
